<?xml version="1.0" encoding="UTF-8" standalone="no"?>
<!-- Created with Inkscape (http://www.inkscape.org/) -->

<svg
   xmlns:dc="http://purl.org/dc/elements/1.1/"
   xmlns:cc="http://creativecommons.org/ns#"
   xmlns:rdf="http://www.w3.org/1999/02/22-rdf-syntax-ns#"
   xmlns:svg="http://www.w3.org/2000/svg"
   xmlns="http://www.w3.org/2000/svg"
   xmlns:xlink="http://www.w3.org/1999/xlink"
   xmlns:sodipodi="http://sodipodi.sourceforge.net/DTD/sodipodi-0.dtd"
   xmlns:inkscape="http://www.inkscape.org/namespaces/inkscape"
   version="1.1"
   id="svg2"
   width="3804"
   height="780"
   viewBox="0 0 3804 780"
   sodipodi:docname="waving_v2.svg"
   inkscape:version="0.92.3 (2405546, 2018-03-11)">
  <metadata
     id="metadata8">
    <rdf:RDF>
      <cc:Work
         rdf:about="">
        <dc:format>image/svg+xml</dc:format>
        <dc:type
           rdf:resource="http://purl.org/dc/dcmitype/StillImage" />
        <dc:title></dc:title>
        <cc:license
           rdf:resource="http://creativecommons.org/licenses/by-nc/4.0/" />
      </cc:Work>
      <cc:License
         rdf:about="http://creativecommons.org/licenses/by-nc/4.0/">
        <cc:permits
           rdf:resource="http://creativecommons.org/ns#Reproduction" />
        <cc:permits
           rdf:resource="http://creativecommons.org/ns#Distribution" />
        <cc:requires
           rdf:resource="http://creativecommons.org/ns#Notice" />
        <cc:requires
           rdf:resource="http://creativecommons.org/ns#Attribution" />
        <cc:prohibits
           rdf:resource="http://creativecommons.org/ns#CommercialUse" />
        <cc:permits
           rdf:resource="http://creativecommons.org/ns#DerivativeWorks" />
      </cc:License>
    </rdf:RDF>
  </metadata>
  <defs
     id="defs6">
    <linearGradient
       inkscape:collect="always"
       id="linearGradient110">
      <stop
         style="stop-color:#cccccc;stop-opacity:1;"
         offset="0"
         id="stop106" />
      <stop
         style="stop-color:#cccccc;stop-opacity:0;"
         offset="1"
         id="stop108" />
    </linearGradient>
    <linearGradient
       inkscape:collect="always"
       xlink:href="#linearGradient110"
       id="linearGradient112"
       x1="2247.6194"
       y1="1183.3748"
       x2="2314.4446"
       y2="780.04803"
       gradientUnits="userSpaceOnUse"
       gradientTransform="translate(-39.735532,14.767208)" />
    <linearGradient
       inkscape:collect="always"
       xlink:href="#linearGradient110"
       id="linearGradient126"
       gradientUnits="userSpaceOnUse"
       gradientTransform="matrix(0.99237079,0,0,0.80675177,35.324052,173.55761)"
       x1="2240.9258"
       y1="1161.5535"
       x2="2277.0112"
       y2="899.89178" />
  </defs>
  <sodipodi:namedview
     pagecolor="#ffffff"
     bordercolor="#666666"
     borderopacity="1"
     objecttolerance="10"
     gridtolerance="10"
     guidetolerance="10"
     inkscape:pageopacity="0"
     inkscape:pageshadow="2"
     inkscape:window-width="1973"
     inkscape:window-height="1127"
     id="namedview4"
     showgrid="false"
     inkscape:zoom="0.25429077"
     inkscape:cx="1322.7617"
     inkscape:cy="256.0253"
     inkscape:window-x="39"
     inkscape:window-y="27"
     inkscape:window-maximized="0"
     inkscape:current-layer="g16"
     inkscape:pagecheckerboard="true" />
  <g
     id="g16">
    <rect
       style="opacity:1;fill:#cccccc;fill-opacity:1;stroke-width:0.37363547"
       id="rect53"
       width="3806.666"
       height="44.050831"
       x="0"
       y="735.94922" />
    <rect
       style="opacity:1;fill:url(#linearGradient126);fill-opacity:1;stroke-width:0.79965574"
       id="rect53-3"
       width="2507.7822"
       height="523.71906"
       x="1192.524"
       y="921.53699"
       transform="matrix(0.98680282,-0.1619265,0.2978013,0.95462788,0,0)" />
    <g
       id="g151"
       transform="matrix(1,0,0,0.71096236,0,224.59413)">
      <path
         inkscape:connector-curvature="0"
         id="path28"
         d="M 628,776.44076 C 422.26371,771.58853 245.48963,761.3364 54.730115,743.19357 20.213212,739.91072 2.8948969,737.75204 1.7301153,736.58725 -0.63034889,734.2268 -0.84856105,451.17175 1.5094775,450.38573 2.33969,450.10899 12.08969,451.57664 23.176144,453.64717 294.02112,504.23088 575.72095,535.53459 860,546.63867 c 141.5664,5.52965 325.7266,5.53818 471.3333,0.0219 C 1982.5639,521.98841 2657.5608,395.34644 3330.6667,171.54843 3466.0049,126.5504 3598.5947,78.576899 3742,22.720129 3792.2741,3.1382305 3800.6812,0 3802.8656,0 c 0.624,0 1.1344,39.025088 1.1344,86.722417 0,80.750053 -0.1607,86.894853 -2.3333,89.226273 -2.5458,2.73174 -62.8079,28.01719 -138.3334,58.0434 C 2978.2847,506.34285 2262.8477,676.68413 1516,745.25945 1340.8875,761.33823 1170.8965,771.10004 980.66667,776.0012 937.57116,777.11153 670.55227,777.44433 628,776.44076 Z M 2711.1647,587.37472 c -0.4687,-1.22135 -0.3224,-2.68161 0.3249,-3.24503 0.6473,-0.56341 10.7771,-3.28448 22.5104,-6.04681 39.7588,-9.36027 165.0737,-40.84139 216,-54.26267 156.7803,-41.31838 298.0777,-82.19328 449.3333,-129.98422 115.2598,-36.41764 325.7086,-109.09262 395.6667,-136.63682 3.6991,-1.4564 6.3333,-1.91436 6.3333,-1.10102 0,0.7659 0.6,1.02174 1.3334,0.56852 0.8836,-0.54612 1.3333,28.24012 1.3333,85.34988 0,75.77834 -0.2475,86.42138 -2.0512,88.22518 -2.2248,2.22482 -16.5045,5.59715 -91.9488,21.71504 -319.3373,68.22312 -666.5317,118.01354 -934,133.94302 -67.3424,4.01068 -63.8924,3.9322 -64.8353,1.47493 z M 960.66667,471.09984 C 704.60704,467.12465 446.8634,448.37217 211.33333,416.58112 133.56605,406.08436 9.0012405,386.61641 3,384.02119 l -3,-1.29735 v -73.24452 -73.24451 l 3,0.41939 c 1.65,0.23065 21.3,4.94184 43.666667,10.46928 C 412.63248,337.56419 842.91837,393.75765 1314,412.63171 c 210.9583,8.45212 470.9199,8.71704 646.6667,0.65901 96.8021,-4.4384 102.6869,-2.96212 23.7409,5.95579 -343.4597,38.79788 -700.337,56.87402 -1023.74093,51.85333 z"
         style="fill:#cbb3b3;stroke-width:1.33333337" />
      <path
         inkscape:connector-curvature="0"
         id="path26"
         d="M 707.33333,776.52711 C 477.01929,773.53812 264.35875,762.08213 40.666667,740.61392 21.6,738.78404 4.65,736.98589 3,736.61804 L 0,735.9492 V 593.30793 C 0,469.30056 0.25368248,450.66667 1.9419233,450.66667 c 1.0680579,0 19.8180577,3.27765 41.6666657,7.28368 C 699.06539,578.13069 1391.9717,582.81991 2104.6667,471.89845 2646.2239,387.61229 3205.5144,234.28979 3743.3333,22.678427 3788.0043,5.1020911 3801.4265,0 3802.9943,0 3803.5475,0 3804,39.170636 3804,87.045856 v 87.045854 l -3.6667,2.14041 c -4.719,2.75475 -68.8334,29.311 -124.35,51.50587 C 2824.4373,568.17655 1921.33,751.55708 982.66667,774.6296 c -56.5381,1.38972 -225.00146,2.55072 -275.33334,1.89751 z M 2714.0764,586.79031 c -1.3931,-2.25396 2.5971,-3.46055 44.5903,-13.48416 186.0549,-44.41052 420.4236,-109.20039 610,-168.631 138.1385,-43.3053 304.0068,-100.02658 411.1444,-140.59735 9.7961,-3.70959 19.2461,-7.00491 21,-7.32296 L 3804,256.17659 v 86.41661 86.41661 l -3.6667,1.47955 c -4.2994,1.73489 -65.0192,15.13957 -128.2061,28.30319 -309.03,64.37965 -647.1861,111.5752 -906.1272,126.46573 -13.2,0.75908 -30.0817,1.73959 -37.5151,2.17891 -9.089,0.53717 -13.8076,0.32533 -14.4085,-0.64688 z M 897.33333,469.3144 c -282.88601,-7.78603 -535.13448,-29.48332 -784,-67.43619 C 64.432704,394.42071 11.623877,385.65344 5,383.89285 l -5,-1.32897 v -73.16167 -73.16168 l 7,1.7041 c 3.85,0.93724 20.8,5.12365 37.666667,9.30313 374.175773,92.71896 821.262403,150.10729 1304.000033,167.38229 105.4932,3.77514 157.671,4.5782 300,4.61731 151.1001,0.0415 210.1514,-0.96573 310,-5.28775 50.5869,-2.18968 72.2745,-2.37536 66,-0.56504 -8.1814,2.36048 -152.2651,17.56759 -238.6667,25.18974 -169.2404,14.92997 -297.2768,22.68296 -488,29.54982 -48.5985,1.74976 -347.93816,2.63154 -400.66667,1.18027 z"
         style="fill:#cb8d8d;stroke-width:1.33333337" />
      <path
         inkscape:connector-curvature="0"
         id="path24"
         d="M 692.66667,775.19965 C 463.38772,771.46197 265.89283,760.78829 52.666667,740.61065 25.533333,738.04301 2.5833333,735.67405 1.6666667,735.34629 0.34747593,734.8746 0,705.10193 0,592.54184 V 450.33333 l 4.3333333,0.89503 C 18.554484,454.16568 93.342421,467.53379 127.33333,473.21423 353.53579,511.01637 579.84156,534.92448 816,545.96851 c 98.15315,4.59016 138.76031,5.36465 280.6667,5.35308 159.2018,-0.0133 210.4012,-1.30347 346,-8.72103 557.5494,-30.49921 1135.5938,-136.44347 1714,-314.14273 200.0266,-61.45266 430.6926,-142.542946 612,-215.147771 16.8666,-6.7542826 31.7166,-12.5821404 33,-12.95079496 C 3803.872,-0.27423679 3804,4.4815888 3804,87.029285 v 87.340305 l -40.5431,16.81493 C 3171.466,436.70804 2549.0564,606.45132 1908,697.20391 c -306.1572,43.34184 -597.9315,67.55477 -917.33333,76.12505 -50.79174,1.36285 -251.76266,2.62445 -298,1.87069 z M 2718.1327,585.40116 c 0.8062,-0.84321 29.3062,-8.34344 63.3333,-16.66717 C 3136.1836,481.96251 3498.6936,371.33111 3795,259.42204 l 9,-3.39912 v 86.56536 c 0,81.29653 -0.142,86.60653 -2.3333,87.242 -7.1011,2.05927 -108.6403,23.77868 -159.6667,34.15299 -296.4663,60.27532 -614.2985,104.22378 -862.6667,119.28574 -62.0524,3.7631 -62.7846,3.7886 -61.2006,2.13215 z M 924,469.23503 C 649.04869,463.421 379.8412,441.25343 130.66667,403.90896 89.502401,397.73956 10.028813,384.912 3,383.30272 L 0,382.61587 V 309.9746 c 0,-43.71611 0.49208119,-72.64127 1.235789,-72.64127 0.6796839,0 21.551483,5.0399 46.381775,11.19976 C 453.09251,349.1228 938.95852,406.95821 1478,418.79971 c 79.5703,1.74797 345.7281,0.8701 406.6667,-1.34131 68.1848,-2.47437 107.6778,-4.10064 120.5186,-4.96279 13.52,-0.90776 16.4132,1.0986 3.8536,2.67242 -73.8716,9.2566 -242.6152,25.24954 -353.0389,33.45982 -243.6541,18.11631 -503.6524,25.43575 -732,20.60718 z"
         style="fill:#d36c6c;stroke-width:1.33333337" />
      <path
         inkscape:connector-curvature="0"
         id="path22"
         d="M 714,775.17143 C 481.62584,772.67157 264.71199,760.76176 17.333333,736.92045 L 0.66666667,735.3142 0.32728312,592.84545 C 0.03234976,469.03632 0.24036476,450.4736 1.9155076,451.11641 2.975692,451.52324 20.228415,454.86613 40.254891,458.54505 590.59913,559.64481 1166.8756,579.53877 1760,517.91335 2366.8824,454.85847 2991.0132,305.34933 3612,74.270924 3670.2795,52.584261 3783.0833,8.854616 3796.4285,2.7751465 3799.7791,1.2488159 3802.8533,0 3803.2601,0 c 0.407,0 0.7399,39.3 0.7399,87.333333 0,55.865177 -0.4687,87.333337 -1.3005,87.333337 -0.7154,0 -19.1654,7.42149 -41,16.49221 C 2939.7916,532.60127 2052.7377,727.70993 1139.3333,767.95173 1016.0581,773.38285 834.38824,776.46656 714,775.17143 Z M 2721.9091,585.18625 c -0.7952,-1.28681 -3.7364,-0.49712 54.0909,-14.52336 289.1125,-70.12538 591.2977,-158.87285 852.6667,-250.416 73.8865,-25.87836 166.6556,-59.69656 172.8458,-63.00948 2.4159,-1.2929 2.4875,1.15902 2.4875,85.15142 v 86.48264 l -13,2.83533 c -115.4603,25.18217 -170.1245,36.41636 -254.3333,52.26873 -287.3699,54.09756 -563.4271,88.94538 -806.405,101.79572 -4.256,0.2251 -8.0146,-0.0381 -8.3526,-0.585 z M 996.66667,469.84152 C 651.85893,466.02519 322.27168,437.42448 13,384.48155 L 0,382.25613 v -72.55125 c 0,-68.48584 0.13074812,-72.51031 2.3333333,-71.82069 9.0237867,2.82532 108.4500767,26.58093 148.3333367,35.44084 449.50741,99.8562 1003.20303,152.25721 1558.66663,147.5101 114.1055,-0.97517 164.0231,-2.18993 280,-6.81384 26.5392,-1.0581 13.8467,1.41026 -34,6.61207 -241.3626,26.24059 -475.2085,41.91231 -706,47.31421 -61.8538,1.44776 -199.6546,2.4807 -252.66663,1.89395 z"
         style="fill:#d04e4e;stroke-width:1.33333337" />
      <path
         inkscape:connector-curvature="0"
         id="path20"
         d="M 661.01664,773.35135 C 448.74757,769.37697 244.68339,757.85717 46.231612,738.64561 23.625665,736.45719 3.9756656,734.66667 2.5649456,734.66667 0.04994693,734.66667 0,731.89873 0,592.52401 0,457.65421 0.11938699,450.43304 2.3333333,451.39129 c 5.5883135,2.41879 101.7466467,19.59087 170.9999967,30.5374 321.10127,50.7549 628.56348,73.36136 965.33337,70.97712 123.9028,-0.8772 176.3441,-2.37925 290,-8.3063 C 2185.1648,505.14879 2982.6799,324.91955 3762,17.292976 3781.0667,9.7666552 3797.8501,2.796786 3799.2967,1.8043781 3800.7432,0.81197013 3802.3932,0 3802.9633,0 3803.5335,0 3804,39.018831 3804,86.708513 c 0,81.380317 -0.1433,86.758567 -2.3333,87.523127 -1.2834,0.44804 -19.4334,7.87071 -40.3334,16.49481 -173.5309,71.60527 -334.398,131.56531 -508,189.34702 -696.0316,231.66732 -1426.2917,362.25061 -2176.6666,389.2261 -118.44306,4.25795 -306.65062,6.0926 -415.65006,4.05178 z M 2819.3333,560.75216 c 319.0291,-80.04385 591.6675,-161.84664 866.293,-259.92364 32.8576,-11.73445 107.4545,-39.25756 116.0404,-42.81397 2.2081,-0.91464 2.3333,3.64826 2.3333,85.00946 V 429 l -3,0.0567 c -1.65,0.0312 -21,4.04762 -43,8.92549 -327.8888,72.69989 -684.3164,125.18727 -977.9489,144.01233 -63.4867,4.07019 -65.1152,4.95084 39.2822,-21.24229 z M 917.33333,467.98071 C 613.98901,460.69449 340.39984,436.56424 69.333333,393.18805 c -23.1,-3.69648 -46.5,-7.57588 -52,-8.62089 -5.5,-1.04503 -11.6499997,-1.90013 -13.6666663,-1.90027 L 0,382.66667 V 309.85735 C 0,241.0332 0.12771331,237.10131 2.3333333,238.02147 9.6010215,241.05347 92.746823,261.08017 158,275.51573 c 356.17003,78.79332 771.40643,127.16047 1217.3333,141.79622 189.5852,6.22236 435.138,5.34516 600,-2.14343 10.2667,-0.46635 18.3379,-0.49129 17.9362,-0.0555 -1.4126,1.53227 -126.497,14.56142 -212.6028,22.1453 -169.5544,14.93374 -317.9916,23.72098 -498.6667,29.52029 -55.8404,1.79237 -305.78863,2.61625 -364.66667,1.20203 z"
         style="fill:#cd2f2f;stroke-width:1.33333337" />
      <path
         inkscape:connector-curvature="0"
         id="path18"
         d="M 649.33333,772.43059 C 442.06373,768.37447 225.36167,755.65849 29.577063,736.06359 15.411115,734.6458 2.9611145,733.81568 1.9103965,734.21888 0.25944391,734.85241 0,715.62593 0,592.64605 0,469.61264 0.25739149,450.55376 1.9005492,451.91747 c 2.0680653,1.71633 42.4733338,9.38766 109.4327808,20.77688 486.30922,82.71686 989.84177,102.71164 1507.99997,59.88118 266.8687,-22.0591 531.543,-59.9322 804.6667,-115.14234 434.0861,-87.74764 870.9897,-217.07404 1306.0001,-386.584783 58.4268,-22.7672155 70.158,-27.5791727 69.308,-28.4291259 -0.4109,-0.4109995 0.4766,-1.067302 1.9723,-1.45845026 C 3803.9969,0.25045413 3804,0.34691473 3804,86.516037 v 86.266393 l -5,1.45138 c -2.75,0.79826 -24.8,9.66507 -49,19.70402 -570.0084,236.45806 -1190.9764,406.58894 -1812.6667,496.62878 -331.9688,48.07927 -637.049,73.45038 -979.3333,81.44336 -48.01908,1.12135 -258.22211,1.40778 -308.66667,0.42062 z M 2737.3511,582.97956 c 0.013,-0.53876 38.2596,-10.47863 85,-22.08861 293.9284,-73.00988 566.9138,-154.2773 831.6489,-247.58075 53.1296,-18.72507 138.924,-50.192 145,-53.18189 l 5,-2.46042 v 85.16606 c 0,83.13538 -0.061,85.16605 -2.5636,85.16605 -1.4099,0 -20.4599,3.93824 -42.3333,8.75163 -334.9946,73.71802 -707.5956,128.52797 -982.4364,144.51724 -13.2,0.76793 -27.45,1.6874 -31.6667,2.04324 -4.2167,0.35585 -7.6587,0.2062 -7.6489,-0.33255 z M 924,467.17749 C 765.0338,462.9268 659.21675,457.5804 530,447.27064 365.48932,434.14491 200.20724,414.04505 47.745753,388.62401 23.772584,384.62679 3.2225839,381.71535 2.0790864,382.15415 0.21150237,382.87081 0,375.54519 0,310.14265 c 0,-64.20814 0.56083755,-78.10068 2.8888889,-71.5608 0.2444444,0.68668 14.8444441,4.84351 32.4444441,9.23738 C 492.21191,361.87977 1054.3147,422.58641 1654,422.63388 c 104.7643,0.008 276.1212,-3.35287 307.2889,-6.02745 4.7423,-0.40695 8.2424,-0.35999 7.778,0.1044 -1.2017,1.20177 -10.8469,2.30572 -85.7336,9.81269 -201.9512,20.24451 -368.3073,31.2758 -587.3333,38.94684 -36.2156,1.2684 -336.81837,2.64792 -372,1.70717 z"
         style="fill:#c60000;stroke-width:1.33333337" />
    </g>
  </g>
</svg>
